<svg xmlns="http://www.w3.org/2000/svg" width="64" height="64" viewBox="0 0 64 64" fill="none">
  <defs>
    <linearGradient id="g" x1="0" y1="0" x2="64" y2="64" gradientUnits="userSpaceOnUse">
      <stop stop-color="#10b981" stop-opacity="0.15"/>
      <stop offset="1" stop-color="#10b981" stop-opacity="0.05"/>
    </linearGradient>
  </defs>
  <rect x="2" y="2" width="60" height="60" rx="12" fill="url(#g)" stroke="#16a34a" stroke-opacity="0.25"/>
  <g fill="#16a34a" fill-opacity="0.85">
    <path d="M18 40V24h4v6h6v-6h4v16h-4v-6h-6v6h-4Z"/>
    <path d="M40.2 40c-3.6 0-6.2-2.7-6.2-6s2.6-6 6.2-6c3.6 0 6.2 2.7 6.2 6s-2.6 6-6.2 6Zm0-3.6c1.7 0 2.8-1.4 2.8-2.4 0-1.2-1.1-2.4-2.8-2.4s-2.8 1.2-2.8 2.4c0 1 .9 2.4 2.8 2.4Z"/>
  </g>
</svg>
