<?xml version="1.0" encoding="UTF-8"?>
<svg width="512" height="512" viewBox="0 0 512 512" fill="none" xmlns="http://www.w3.org/2000/svg">
  <defs>
    <linearGradient id="g" x1="0" y1="0" x2="512" y2="512" gradientUnits="userSpaceOnUse">
      <stop offset="0%" stop-color="#6EE7F9"/>
      <stop offset="100%" stop-color="#7C3AED"/>
    </linearGradient>
  </defs>
  <rect x="40" y="64" width="432" height="384" rx="48" fill="url(#g)"/>
  <!-- Antenna -->
  <rect x="248" y="24" width="16" height="48" rx="8" fill="#ffffff" opacity="0.9"/>
  <circle cx="256" cy="16" r="12" fill="#ffffff" opacity="0.95"/>
  <!-- Eyes -->
  <circle cx="184" cy="208" r="28" fill="#0f172a"/>
  <circle cx="328" cy="208" r="28" fill="#0f172a"/>
  <circle cx="184" cy="208" r="12" fill="#22d3ee"/>
  <circle cx="328" cy="208" r="12" fill="#22d3ee"/>
  <!-- Mouth -->
  <rect x="176" y="268" width="160" height="20" rx="10" fill="#0f172a" opacity="0.9"/>
  <!-- Body panel -->
  <rect x="120" y="308" width="272" height="92" rx="16" fill="#ffffff" opacity="0.92"/>
  <rect x="136" y="324" width="120" height="60" rx="10" fill="#0f172a" opacity="0.9"/>
  <rect x="268" y="324" width="108" height="16" rx="8" fill="#0f172a" opacity="0.7"/>
  <rect x="268" y="348" width="108" height="16" rx="8" fill="#0f172a" opacity="0.7"/>
  <rect x="268" y="372" width="88" height="16" rx="8" fill="#0f172a" opacity="0.7"/>
  <!-- Decorative bolts -->
  <circle cx="80" cy="112" r="10" fill="#ffffff" opacity="0.8"/>
  <circle cx="432" cy="112" r="10" fill="#ffffff" opacity="0.8"/>
  <circle cx="80" cy="432" r="10" fill="#ffffff" opacity="0.8"/>
  <circle cx="432" cy="432" r="10" fill="#ffffff" opacity="0.8"/>
</svg>
