<?xml version="1.0" encoding="UTF-8"?>
<svg width="512" height="512" viewBox="0 0 512 512" fill="none" xmlns="http://www.w3.org/2000/svg" role="img" aria-label="AI Bot Badge">
  <defs>
    <linearGradient id="g" x1="0" y1="0" x2="1" y2="1" gradientUnits="objectBoundingBox">
      <stop offset="0%" stop-color="#5dd6ff"/>
      <stop offset="100%" stop-color="#7a5cff"/>
    </linearGradient>
    <filter id="soft" x="-20%" y="-20%" width="140%" height="140%" color-interpolation-filters="sRGB">
      <feGaussianBlur in="SourceGraphic" stdDeviation="6"/>
    </filter>
  </defs>

  <!-- Circular gradient background -->
  <circle cx="256" cy="256" r="236" fill="url(#g)"/>
  <!-- Subtle inner ring -->
  <circle cx="256" cy="256" r="236" fill="none" stroke="rgba(255,255,255,0.18)" stroke-width="4"/>

  <!-- AI Bot outline (white) -->
  <g fill="none" stroke="#ffffff" stroke-width="24" stroke-linecap="round" stroke-linejoin="round">
    <!-- Antenna -->
    <line x1="256" y1="108" x2="256" y2="152"/>
    <circle cx="256" cy="88" r="14" fill="#ffffff" stroke="none"/>

    <!-- Head (rounded rectangle) -->
    <rect x="140" y="168" width="232" height="196" rx="56"/>

    <!-- Chin subtle curve -->
    <path d="M188 344c20 28 54 44 92 44s72-16 92-44"/>

    <!-- Eyes (lenses + pupils) -->
    <ellipse cx="208" cy="266" rx="26" ry="22"/>
    <circle cx="208" cy="266" r="8" fill="#ffffff" stroke="none"/>
    <ellipse cx="304" cy="266" rx="26" ry="22"/>
    <circle cx="304" cy="266" r="8" fill="#ffffff" stroke="none"/>

    <!-- Forehead AI node + micro traces -->
    <circle cx="256" cy="222" r="9"/>
    <line x1="256" y1="231" x2="256" y2="242"/>
    <line x1="236" y1="222" x2="226" y2="222"/>
    <line x1="276" y1="222" x2="286" y2="222"/>

    <!-- Side-ports -->
    <circle cx="120" cy="266" r="6"/>
    <circle cx="392" cy="266" r="6"/>
  </g>
</svg>
